<svg width="20" height="20" viewBox="0 0 20 20" fill="none" xmlns="http://www.w3.org/2000/svg">
<g filter="url(#filter0_i_85_26)">
<path d="M10 3.4375C13.6191 3.4375 16.5625 6.38086 16.5625 10C16.5625 13.6191 13.6191 16.5625 10 16.5625C6.38086 16.5625 3.4375 13.6191 3.4375 10C3.4375 6.38086 6.38086 3.4375 10 3.4375ZM10 1.25C5.16797 1.25 1.25 5.16797 1.25 10C1.25 14.832 5.16797 18.75 10 18.75C14.832 18.75 18.75 14.832 18.75 10C18.75 5.16797 14.832 1.25 10 1.25Z" fill="#ECE3DF"/>
</g>
<g filter="url(#filter1_i_85_26)">
<path d="M12.1875 13.2812C11.9082 13.2812 11.627 13.1738 11.4141 12.9609L9.22852 10.7754C9.0237 10.5707 8.90789 10.2935 8.90625 10.0039V5.625C8.90625 5.01953 9.39648 4.53125 10 4.53125C10.6035 4.53125 11.0938 5.02148 11.0938 5.625V9.54688L12.9609 11.4141C13.3887 11.8418 13.3887 12.5332 12.9609 12.9609C12.748 13.1738 12.4668 13.2812 12.1875 13.2812Z" fill="#ECE3DF"/>
</g>
<defs>
<filter id="filter0_i_85_26" x="1.25" y="1.25" width="17.5" height="18.5" filterUnits="userSpaceOnUse" color-interpolation-filters="sRGB">
<feFlood flood-opacity="0" result="BackgroundImageFix"/>
<feBlend mode="normal" in="SourceGraphic" in2="BackgroundImageFix" result="shape"/>
<feColorMatrix in="SourceAlpha" type="matrix" values="0 0 0 0 0 0 0 0 0 0 0 0 0 0 0 0 0 0 127 0" result="hardAlpha"/>
<feOffset dy="1"/>
<feGaussianBlur stdDeviation="0.5"/>
<feComposite in2="hardAlpha" operator="arithmetic" k2="-1" k3="1"/>
<feColorMatrix type="matrix" values="0 0 0 0 0 0 0 0 0 0 0 0 0 0 0 0 0 0 0.25 0"/>
<feBlend mode="normal" in2="shape" result="effect1_innerShadow_85_26"/>
</filter>
<filter id="filter1_i_85_26" x="8.90625" y="4.53125" width="4.37549" height="9.75" filterUnits="userSpaceOnUse" color-interpolation-filters="sRGB">
<feFlood flood-opacity="0" result="BackgroundImageFix"/>
<feBlend mode="normal" in="SourceGraphic" in2="BackgroundImageFix" result="shape"/>
<feColorMatrix in="SourceAlpha" type="matrix" values="0 0 0 0 0 0 0 0 0 0 0 0 0 0 0 0 0 0 127 0" result="hardAlpha"/>
<feOffset dy="1"/>
<feGaussianBlur stdDeviation="0.5"/>
<feComposite in2="hardAlpha" operator="arithmetic" k2="-1" k3="1"/>
<feColorMatrix type="matrix" values="0 0 0 0 0 0 0 0 0 0 0 0 0 0 0 0 0 0 0.25 0"/>
<feBlend mode="normal" in2="shape" result="effect1_innerShadow_85_26"/>
</filter>
</defs>
</svg>
