<?xml version="1.0" encoding="utf-8"?>
<!-- Generator: Adobe Illustrator 28.2.0, SVG Export Plug-In . SVG Version: 6.00 Build 0)  -->
<svg version="1.1" id="图层_1" xmlns="http://www.w3.org/2000/svg" xmlns:xlink="http://www.w3.org/1999/xlink" x="0px" y="0px"
	 viewBox="0 0 48 48" style="enable-background:new 0 0 48 48;" xml:space="preserve">
<style type="text/css">
	.st0{fill:#FFF5F1;}
</style>
<path class="st0" d="M24,8.2c8.7,0,15.8,7.1,15.8,15.8S32.7,39.8,24,39.8S8.2,32.7,8.2,24S15.3,8.2,24,8.2z M24,3
	C12.4,3,3,12.4,3,24s9.4,21,21,21s21-9.4,21-21S35.6,3,24,3z"/>
<path class="st0" d="M29.2,31.9c-0.7,0-1.3-0.3-1.9-0.8l-5.2-5.2c-0.5-0.5-0.8-1.2-0.8-1.9V13.5c0-1.5,1.2-2.6,2.6-2.6
	c1.4,0,2.6,1.2,2.6,2.6v9.4l4.5,4.5c1,1,1,2.7,0,3.7C30.6,31.6,29.9,31.9,29.2,31.9z"/>
</svg>
