<?xml version="1.0" encoding="utf-8"?>
<!-- Generator: Adobe Illustrator 28.2.0, SVG Export Plug-In . SVG Version: 6.00 Build 0)  -->
<svg version="1.1" id="图层_1" xmlns="http://www.w3.org/2000/svg" xmlns:xlink="http://www.w3.org/1999/xlink" x="0px" y="0px"
	 viewBox="0 0 64 65.4" style="enable-background:new 0 0 64 65.4;" xml:space="preserve">
<style type="text/css">
	.st0{fill:#FFF5F1;}
</style>
<path class="st0" d="M51.3,63.5H12.7c-4.8,0-8.7-3.9-8.7-8.7V25.6c0-2.7,1.2-5.2,3.3-6.8l19.1-15c3.1-2.5,7.5-2.5,10.7,0l19.5,15.1
	c2.1,1.6,3.4,4.2,3.4,6.9V55C60,59.6,56.1,63.5,51.3,63.5z M31.8,8.1c-0.6,0-1.1,0.2-1.6,0.5L11.1,23.7c-0.6,0.5-1,1.2-1,2v29.2
	c0,1.4,1.1,2.5,2.5,2.5h38.6c1.4,0,2.5-1.1,2.5-2.5V25.7c0-0.8-0.4-1.5-1-2L33.4,8.6C32.9,8.2,32.4,8.1,31.8,8.1z M9.2,21.2
	L9.2,21.2L9.2,21.2z"/>
<path class="st0" d="M32,47.7c-1.9,0-3.5-1.6-3.5-3.5V32.3c0-1.9,1.6-3.5,3.5-3.5c1.9,0,3.5,1.6,3.5,3.5v11.9
	C35.5,46.1,33.9,47.7,32,47.7z"/>
</svg>
