<?xml version="1.0" standalone="no"?><!DOCTYPE svg PUBLIC "-//W3C//DTD SVG 1.1//EN" "http://www.w3.org/Graphics/SVG/1.1/DTD/svg11.dtd"><svg t="1705610456986" class="icon" viewBox="0 0 1024 1024" version="1.1" xmlns="http://www.w3.org/2000/svg" p-id="1595" xmlns:xlink="http://www.w3.org/1999/xlink" width="48" height="48"><path d="M1021.707569 507.946688c0 68.831868-6.189916 137.230442-30.949581 197.025032-25.688152 61.899162-73.041011 112.161281-119.836777 158.895148a496.926471 496.926471 0 0 1-164.342274 106.466559c-59.79459 24.759665-122.684139 53.666573-191.516007 53.666573s-134.444979-22.1599-194.301469-46.981464c-61.899162-25.688152-114.142054-67.098691-160.93782-113.832558a500.392824 500.392824 0 0 1-111.418492-162.052006C23.707384 641.277483 2.290274 576.778556 2.290274 507.946688a515.620018 515.620018 0 0 1 38.872673-196.158444c25.750051-61.899162 70.007952-114.018256 116.74182-160.93782s100.338541-86.968322 162.361501-112.656475A507.077933 507.077933 0 0 1 514.815333 0.002166c68.831868 0 132.526105 18.569749 192.320696 43.63891 61.899162 25.688152 124.664912 53.91417 171.398779 100.648037s72.174423 110.490004 97.862575 172.451064c24.821564 59.856489 45.310186 122.746038 45.310186 191.206511z" fill="#FFD635" p-id="1596"></path><path d="M624.191152 957.891695c-64.870322 0-126.831383-20.921917-183.221519-44.3198-58.494708-24.264471-107.704542-63.260943-151.776744-107.395045a471.91921 471.91921 0 0 1-104.795281-152.829031c-23.397883-56.390136-43.329413-117.237012-43.329413-182.169233a486.775008 486.775008 0 0 1 36.396707-185.016595c24.264471-58.494708 66.232103-107.518844 110.118609-151.591047S382.227329 52.430757 440.660138 28.166285A469.133747 469.133747 0 0 1 534.127872 0.559259C527.752258 0.002166 521.314745 0.002166 514.815333 0.002166a507.077933 507.077933 0 0 0-194.549065 38.191783c-61.899162 25.750051-115.627634 66.108305-162.361501 112.842172s-90.991768 99.038659-116.74182 160.937821A515.620018 515.620018 0 0 0 2.290274 507.946688c0 68.831868 21.41711 133.330795 46.238674 193.187284a499.773832 499.773832 0 0 0 111.418491 162.052006c46.733867 46.733867 99.038659 88.144406 160.937821 113.832558 59.856489 24.759665 125.5315 46.981464 194.301468 46.981464s131.721416-28.845009 191.516007-53.666573a517.848388 517.848388 0 0 0 134.568778-79.540423c-11.760841 5.818521-23.769278 11.389446-36.087212 16.527076-56.761531 23.335984-115.813332 50.571615-180.993149 50.571615z" fill="#F7B523" p-id="1597"></path><path d="M433.294137 132.156877s3.652051-2.847361 10.275261-7.304101a240.168748 240.168748 0 0 1 28.659312-16.650875 235.712008 235.712008 0 0 1 44.3198-16.836572A217.513655 217.513655 0 0 1 571.762562 83.689833h14.05111c4.39484 0 9.408673 0.309496 13.927311 0.618992s9.099177 0.990387 13.555917 1.609378 8.789681 1.547479 13.060723 2.475967a168.613317 168.613317 0 0 1 24.078774 7.489798 140.139702 140.139702 0 0 1 20.488623 9.903866 123.798324 123.798324 0 0 1 27.483227 21.293312 74.278994 74.278994 0 0 1 6.623211 7.737395 27.607026 27.607026 0 0 1 2.16647 3.033059s-5.19953 0.928487-13.617815 1.547479c-4.147244 0.309496-9.099177 0.433294-14.670102 0.680891s-11.637042 0-18.136454 0-13.432118-0.618992-20.67432-1.114185-14.732001-1.361782-22.469396-2.352168l-11.698941-1.609379-12.008438-1.918874c-4.085345-0.680891-7.737395-1.423681-12.379832-2.042672l-6.189916-1.237983a55.214052 55.214052 0 0 0-5.818522-0.74279 438.988855 438.988855 0 0 0-91.54886 0l-32.125665 2.723563-9.222975 0.680891z" fill="#FFEF57" p-id="1598"></path><path d="M216.213777 411.941088l1.114185-2.042672 3.466353-5.818521c3.033059-4.890034 7.427899-11.698942 13.184521-19.498236s12.379832-16.712774 20.67432-25.935749c4.147244-4.45674 8.170689-9.284874 12.751228-13.741614s9.037278-9.284874 13.927311-13.617816 9.780068-8.789681 14.7939-12.875025 10.089563-7.923093 15.041496-11.637043 10.027664-6.994605 14.7939-10.151462l6.994605-4.518639 6.808908-3.837748c4.39484-2.414067 8.418286-4.766235 12.070336-6.62321l9.470572-4.580538 8.418286-3.899648a21.726606 21.726606 0 0 1 18.569749 39.305968 14.7939 14.7939 0 0 1-2.290269 0.928488l-1.299883 0.433294-7.489798 2.537865-8.665883 2.909261c-3.280656 1.237983-6.870807 2.847361-10.894252 4.518639l-6.189916 2.599765-6.189917 3.280655c-4.518639 2.22837-9.346773 4.45674-14.051109 7.366s-9.780068 5.509025-14.546303 8.789681-9.841967 6.189916-14.608203 10.027665-9.532471 7.118404-14.113008 10.832353-9.284874 7.613597-13.30832 11.265647c-8.294488 7.613597-15.846185 15.041496-21.850404 21.726606s-10.956152 12.379832-14.236808 16.527076c-1.547479 2.042672-2.723563 3.652051-3.590151 4.704337l-1.237983 1.733176a10.151463 10.151463 0 0 1-17.084169-10.956151zM954.608878 422.649643l-1.299882-1.733176-3.590152-4.704337c-3.280656-4.023446-8.046891-9.903866-14.174908-16.527076s-13.617816-14.113009-21.850404-21.726606c-4.332941-3.652051-8.480185-7.675496-13.184521-11.265647s-9.222975-7.427899-14.113009-10.832353-9.656269-6.870807-14.546303-10.027665-9.841967-6.189916-14.608202-8.789681-9.532471-5.13763-13.989211-7.366l-6.561311-3.280655-6.189916-2.599765c-4.023446-1.671277-7.675496-3.280656-10.956152-4.518639l-8.603984-2.909261-7.489798-2.537865-1.361782-0.433294a21.726606 21.726606 0 0 1 13.865413-41.039145 14.7939 14.7939 0 0 1 2.290269 0.928488l8.418286 3.899647 9.59437 4.580538c3.652051 1.856975 7.613597 4.209143 12.008437 6.62321l6.808908 3.837748 6.994605 4.518639c4.766235 3.156857 9.903866 6.189916 14.7939 10.151463s10.151463 7.427899 15.103395 11.637042 9.965765 8.356387 14.732001 12.875026 9.470572 8.975378 13.927311 13.617815 8.665883 9.284874 12.813127 13.741614c7.923093 9.222975 15.041496 18.012656 20.67432 25.935749s10.089563 14.608202 13.122622 19.498236l3.466353 5.818521 1.176084 2.042673a10.151463 10.151463 0 0 1-17.084169 10.956151z" fill="#F7B523" p-id="1599"></path><path d="M240.849643 474.892536l1.547479-2.537866c0.680891-0.990387 1.671277-2.352168 2.723564-3.71395a53.604674 53.604674 0 0 1 3.775848-4.271042 104.052491 104.052491 0 0 1 26.678539-19.807732 193.620578 193.620578 0 0 1 19.312539-9.161075 219.803924 219.803924 0 0 1 22.345597-7.551698 290.24517 290.24517 0 0 1 49.519329-9.718169c8.665883-0.928487 17.207967-1.423681 25.440556-1.980773s16.712774-0.74279 25.192959-0.557092a140.758694 140.758694 0 0 1 25.626253 2.90926 82.016389 82.016389 0 0 1 24.759665 9.470572 74.278994 74.278994 0 0 1 17.950756 14.917698 106.714155 106.714155 0 0 1 9.965765 13.432118c2.290269 3.775849 3.837748 6.808908 4.828135 8.789681l1.547479 3.094958a22.716992 22.716992 0 1 1-40.667749 20.179127 5.509025 5.509025 0 0 1-0.495193-1.052286s-1.423681-3.218756-4.085345-7.984992a53.047582 53.047582 0 0 0-5.013832-7.551697 33.23985 33.23985 0 0 0-7.242202-6.808908 40.110657 40.110657 0 0 0-11.760841-5.509026 107.890239 107.890239 0 0 0-18.074555-3.280655c-6.870807-0.866588-14.360606-1.299882-22.098001-1.609378s-15.598589-0.433294-23.274085 0a317.790297 317.790297 0 0 0-45.124489 4.332941A224.136865 224.136865 0 0 0 287.026418 468.64072a100.40044 100.40044 0 0 0-23.088387 11.884639 36.644304 36.644304 0 0 0-3.033059 2.475967l-1.918874 1.609378-1.980773 2.166471a9.903866 9.903866 0 0 1-14.05111 0.618991 10.027664 10.027664 0 0 1-2.104572-12.50363z" fill="#943436" p-id="1600"></path><path d="M509.492006 483.806015a66.046406 66.046406 0 0 1-3.899648 24.759665 65.613111 65.613111 0 0 1-15.165294 20.055328 63.013347 63.013347 0 0 1-20.736219 13.432118 64.437027 64.437027 0 0 1-24.140674 6.747009 64.313229 64.313229 0 0 1-24.759664-6.189916 70.317448 70.317448 0 0 1-34.106438-34.415934 63.632338 63.632338 0 0 1-6.189917-24.38827 64.498927 64.498927 0 0 1 4.951933-24.759665 62.827649 62.827649 0 0 1 84.059062-33.858841 64.684624 64.684624 0 0 1 21.602808 12.379832 63.199044 63.199044 0 0 1 12.379832 21.788505 61.899162 61.899162 0 0 1 6.004219 24.450169zM653.15996 474.892536l1.547479-2.537866c0.680891-0.990387 1.671277-2.352168 2.723563-3.71395s2.290269-2.785462 3.71395-4.271042a104.052491 104.052491 0 0 1 26.678539-19.807732 188.544847 188.544847 0 0 1 19.374437-9.161075 214.728192 214.728192 0 0 1 22.345598-7.551698 287.954901 287.954901 0 0 1 49.519329-9.718169c8.665883-0.928487 17.207967-1.423681 25.440556-1.980773s16.712774-0.74279 25.192959-0.557092a140.758694 140.758694 0 0 1 25.626252 2.90926 82.016389 82.016389 0 0 1 24.759665 9.470572 74.278994 74.278994 0 0 1 17.950757 14.917698 99.71955 99.71955 0 0 1 9.903866 13.432118c2.352168 3.775849 3.899647 6.808908 4.890034 8.789681l1.547479 3.094958a22.716992 22.716992 0 1 1-40.729649 20.179127l-0.495193-1.052286s-1.361782-3.218756-4.023445-7.984992a53.047582 53.047582 0 0 0-5.013833-7.551697 33.23985 33.23985 0 0 0-7.242201-6.808908 40.110657 40.110657 0 0 0-11.760841-5.509026 107.890239 107.890239 0 0 0-18.074555-3.280655c-6.870807-0.866588-14.360606-1.299882-22.098001-1.609378s-15.660488-0.433294-23.335984 0a317.790297 317.790297 0 0 0-45.06259 4.332941 222.836982 222.836982 0 0 0-37.69659 9.780068 100.40044 100.40044 0 0 0-23.088387 11.884639 36.644304 36.644304 0 0 0-3.033059 2.475966l-1.918874 1.609378-1.980773 2.166471a9.965765 9.965765 0 0 1-15.908085-11.884639z" fill="#943436" p-id="1601"></path><path d="M921.802322 483.806015a66.046406 66.046406 0 0 1-3.899647 24.759665 65.613111 65.613111 0 0 1-15.165295 20.055328 63.013347 63.013347 0 0 1-20.736219 13.432118 49.952624 49.952624 0 0 1-48.71464 0.804689 62.518153 62.518153 0 0 1-20.117228-14.236807 64.065632 64.065632 0 0 1-14.051109-20.426723 64.684624 64.684624 0 0 1-5.818522-24.38827 65.613111 65.613111 0 0 1 4.890034-24.759665 64.003733 64.003733 0 0 1 14.7939-20.302925 60.475481 60.475481 0 0 1 69.327061-13.555916 64.684624 64.684624 0 0 1 21.602807 12.379832 65.241717 65.241717 0 0 1 12.379833 21.788505 63.075246 63.075246 0 0 1 5.509025 24.450169zM708.250214 758.514495l-1.795076-3.218756-0.433294-0.866589h-0.433294l-0.928487-0.804689c0-0.495193-1.671277-1.733177-2.599765-2.723563a53.109481 53.109481 0 0 0-9.284874-6.870807 66.665397 66.665397 0 0 0-14.670102-6.189916 98.295869 98.295869 0 0 0-19.807731-4.580538 166.13735 166.13735 0 0 0-23.769279-1.856975h-12.998824c-4.45674 0-8.665883 0.371395-13.865412 0.804689-10.089563 0.495193-19.869631 1.237983-29.711598 1.918874l-29.402101 2.475967c-9.718168 0.866588-19.126841 2.042672-28.287917 3.033059-18.198354 2.22837-34.911127 4.828135-48.77654 7.984992l-9.841967 2.352168-8.603983 2.475966c-5.323328 1.671277-9.841967 3.342555-13.432118 4.828135s-6.189916 2.785462-7.923093 3.775849l-2.785462 1.42368-1.48558 0.74279a12.998824 12.998824 0 0 1-17.641261-5.694723 13.184521 13.184521 0 0 1 2.909261-15.784286l3.156857-2.785462a110.05671 110.05671 0 0 1 9.408672-7.304101 149.548375 149.548375 0 0 1 15.350992-8.975379c6.189916-3.033059 12.998824-6.189916 20.612421-9.037277s15.969984-5.385227 24.759665-7.861194 18.136454-4.518639 27.730825-6.189916 19.622034-3.528252 29.773496-5.075731 20.364824-2.723563 30.640085-3.71395 20.736219-1.856975 30.578186-2.537866c4.766235-0.371395 10.460958-0.557092 15.722387-0.618991s10.708555 0 15.908085 0a178.455283 178.455283 0 0 1 30.516287 4.642437 126.398088 126.398088 0 0 1 26.926135 10.151462 92.229751 92.229751 0 0 1 20.798119 14.732001 69.512759 69.512759 0 0 1 12.751227 16.155681 72.174423 72.174423 0 0 1 3.466353 7.4279l1.176084 3.466353 0.495193 1.48558v0.990386c0.371395 2.352168 0.618992 3.652051 0.618992 3.652051a13.432118 13.432118 0 0 1-24.759665 8.665882z" fill="#943436" p-id="1602"></path><path d="M674.391373 820.475556h-7.242202c-4.45674 0-10.584757 0-18.012656 0.371395s-16.093782 0.74279-25.502455 1.176084l-30.949581 1.856975c-10.894252 0.557092-21.788505 0.990387-32.001867 1.299882l-27.854622 0.680891h-27.421329a13.494017 13.494017 0 0 1-4.828135-25.81195s2.661664-1.114185 7.4279-2.909261 11.637042-3.899647 19.93153-6.189916 18.074555-4.45674 28.535513-6.189916 21.726606-3.404454 32.930354-4.45674c5.570925-0.618992 11.389446-0.990387 16.774673-1.423681s11.451345-0.680891 17.084169-0.495193a132.092811 132.092811 0 0 1 30.949581 4.209143 99.038659 99.038659 0 0 1 21.293311 8.294488 51.500103 51.500103 0 0 1 5.632824 3.404454l1.733177 1.237983a14.298706 14.298706 0 0 1 1.733176 20.055328 14.484404 14.484404 0 0 1-10.213361 4.890034z" fill="#F7B523" p-id="1603"></path></svg>