<?xml version="1.0" standalone="no"?><!DOCTYPE svg PUBLIC "-//W3C//DTD SVG 1.1//EN" "http://www.w3.org/Graphics/SVG/1.1/DTD/svg11.dtd"><svg t="1705449065791" class="icon" viewBox="0 0 1024 1024" version="1.1" xmlns="http://www.w3.org/2000/svg" p-id="905" xmlns:xlink="http://www.w3.org/1999/xlink" width="48" height="48"><path d="M235.9 516.7c-77.9 0-141.2-63.3-141.2-141.2S158 234.3 235.9 234.3 377 297.6 377 375.5s-63.3 141.2-141.1 141.2z m0-193c-28.5 0-51.7 23.2-51.7 51.7s23.2 51.7 51.7 51.7 51.7-23.2 51.7-51.7-23.2-51.7-51.7-51.7zM511.3 767.8c-77.9 0-141.2-63.3-141.2-141.2s63.3-141.2 141.2-141.2 141.2 63.3 141.2 141.2-63.3 141.2-141.2 141.2z m0-192.9c-28.5 0-51.7 23.2-51.7 51.7 0 28.5 23.2 51.7 51.7 51.7s51.7-23.2 51.7-51.7c0.1-28.5-23.1-51.7-51.7-51.7zM786.8 516.7c-77.9 0-141.2-63.3-141.2-141.2S709 234.3 786.8 234.3 928 297.6 928 375.5s-63.3 141.2-141.2 141.2z m0-193c-28.5 0-51.7 23.2-51.7 51.7s23.2 51.7 51.7 51.7c28.5 0 51.7-23.2 51.7-51.7s-23.2-51.7-51.7-51.7zM786.8 924.9c-24.7 0-44.7-20-44.7-44.7V582c0-24.7 20-44.7 44.7-44.7 24.7 0 44.7 20 44.7 44.7v298.1c0 24.8-20 44.8-44.7 44.8zM786.8 213.9c-24.7 0-44.7-20-44.7-44.7v-27c0-24.7 20-44.7 44.7-44.7 24.7 0 44.7 20 44.7 44.7v27c0 24.7-20 44.7-44.7 44.7zM235.9 924.9c-24.7 0-44.7-20-44.7-44.7V582c0-24.7 20-44.7 44.7-44.7s44.7 20 44.7 44.7v298.1c0 24.8-20 44.8-44.7 44.8zM235.9 213.9c-24.7 0-44.7-20-44.7-44.7v-27c0-24.7 20-44.7 44.7-44.7s44.7 20 44.7 44.7v27c0 24.7-20 44.7-44.7 44.7zM511.3 464.8c-24.7 0-44.7-20-44.7-44.7V142.2c0-24.7 20-44.7 44.7-44.7s44.7 20 44.7 44.7V420c0.1 24.7-20 44.8-44.7 44.8zM511.3 924.9c-24.7 0-44.7-20-44.7-44.7V833c0-24.7 20-44.7 44.7-44.7s44.7 20 44.7 44.7v47.2c0.1 24.7-20 44.7-44.7 44.7z" fill="#333333" p-id="906"></path></svg>