<?xml version="1.0" encoding="utf-8"?>
<!-- Generator: Adobe Illustrator 28.2.0, SVG Export Plug-In . SVG Version: 6.00 Build 0)  -->
<svg version="1.1" id="图层_1" xmlns="http://www.w3.org/2000/svg" xmlns:xlink="http://www.w3.org/1999/xlink" x="0px" y="0px"
	 viewBox="0 0 48 48" style="enable-background:new 0 0 48 48;" xml:space="preserve">
<style type="text/css">
	.st0{fill:#FFF5F1;}
</style>
<path class="st0" d="M25.4,43.5h-2.9c-2.4,0-4.3-1.9-4.3-4.3V28.8c0-2.4,1.9-4.3,4.3-4.3h2.9c2.4,0,4.3,1.9,4.3,4.3v10.5
	C29.7,41.6,27.8,43.5,25.4,43.5z M22.5,28.7l-0.1,10.5l2.9,0.1c0,0,0.1,0,0.1-0.1V28.8C25.5,28.8,22.5,28.7,22.5,28.7z M39.1,43.5
	h-2.9c-2.4,0-4.3-1.9-4.3-4.3v-20c0-2.4,1.9-4.3,4.3-4.3h2.9c2.4,0,4.3,1.9,4.3,4.3v20C43.4,41.6,41.5,43.5,39.1,43.5z M36.3,19.1
	l-0.1,20.1l2.9,0.1c0,0,0.1,0,0.1-0.1v-20C39.2,19.2,36.3,19.1,36.3,19.1z M11.8,43.5H9c-2.4,0-4.3-1.9-4.3-4.3v-3.8
	c0-2.4,1.9-4.3,4.3-4.3h2.9c2.4,0,4.3,1.9,4.3,4.3v3.8C16.1,41.6,14.2,43.5,11.8,43.5z M9,35.4l-0.1,3.8l2.9,0.1c0,0,0.1,0,0.1-0.1
	v-3.8L9,35.4z M6.8,29.3c-0.5,0-1.1-0.2-1.5-0.6c-0.8-0.8-0.8-2.2,0-3L24.7,6.3c0.8-0.8,2.2-0.8,3,0c0.8,0.8,0.8,2.2,0,3L8.3,28.7
	C7.9,29.1,7.3,29.3,6.8,29.3z"/>
<path class="st0" d="M27.6,17.1c-1.2,0-2.1-1-2.1-2.1v-4.7c0-1-0.8-1.7-1.7-1.7H19c-1.2,0-2.1-1-2.1-2.1s1-2.1,2.1-2.1h4.7
	c3.3,0,6,2.7,6,6V15C29.7,16.1,28.8,17.1,27.6,17.1z"/>
</svg>
